<svg width="79" height="79" viewBox="0 0 79 79" fill="none" xmlns="http://www.w3.org/2000/svg">
<g clip-path="url(#clip0_151_238)">
<path d="M39.5001 15.1438C43.6819 15.1438 47.072 11.7537 47.072 7.57189C47.072 3.39005 43.6819 0 39.5001 0C35.3183 0 31.9282 3.39005 31.9282 7.57189C31.9282 11.7537 35.3183 15.1438 39.5001 15.1438Z" fill="black"/>
<path d="M39.4999 79.1268C43.6817 79.1268 47.0717 75.7368 47.0717 71.5549C47.0717 67.3731 43.6817 63.9831 39.4999 63.9831C35.318 63.9831 31.928 67.3731 31.928 71.5549C31.928 75.7368 35.318 79.1268 39.4999 79.1268Z" fill="black"/>
<path d="M7.57189 47.0719C11.7537 47.0719 15.1438 43.6819 15.1438 39.5C15.1438 35.3182 11.7537 31.9282 7.57189 31.9282C3.39005 31.9282 0 35.3182 0 39.5C0 43.6819 3.39005 47.0719 7.57189 47.0719Z" fill="black"/>
<path d="M71.5543 47.0719C75.7361 47.0719 79.1262 43.6819 79.1262 39.5C79.1262 35.3182 75.7361 31.9282 71.5543 31.9282C67.3725 31.9282 63.9824 35.3182 63.9824 39.5C63.9824 43.6819 67.3725 47.0719 71.5543 47.0719Z" fill="black"/>
<path d="M61.3322 59.9444L51.1102 49.7224C48.46 47.0722 47.0718 43.4125 47.0718 39.6265V39.5003C47.0718 35.7144 48.46 32.0546 51.1102 29.4045L61.4584 19.0562C64.1086 16.4061 67.7683 15.0179 71.5543 15.0179C73.5734 15.0179 75.4664 14.2607 76.9808 12.7463C79.6309 9.96997 79.7571 5.42684 77.107 2.52429C74.2044 -0.630666 69.2827 -0.756865 66.2539 2.27189C64.7396 3.78627 63.9824 5.67924 64.1086 7.69841C64.1086 11.4844 62.7204 15.1441 60.0702 17.7943L49.8482 28.0163C47.198 30.6665 43.5383 32.0546 39.7524 32.0546H39.6262C35.8402 32.0546 32.1805 30.6665 29.5303 28.0163L19.0559 17.6681C16.4057 15.0179 15.0175 11.3582 15.0175 7.57221C15.0175 5.55304 14.2603 3.66007 12.746 2.14569C9.96961 -0.630666 5.30028 -0.630666 2.52392 1.8933C-0.631031 4.79585 -0.75723 9.71758 2.27152 12.7463C3.7859 14.2607 5.67887 15.0179 7.69804 14.8917C11.484 14.8917 15.1437 16.2799 17.7939 18.93L28.0159 29.1521C30.6661 31.8022 32.0543 35.462 32.0543 39.2479V39.3741C32.0543 43.1601 30.6661 46.8198 28.0159 49.47L17.6677 60.0706C15.0175 62.7208 11.3578 64.109 7.57184 64.109C5.55267 64.109 3.6597 64.8661 2.14533 66.3805C-0.504833 69.1569 -0.631031 73.7 2.01913 76.6026C4.92168 79.7575 9.84341 79.8837 12.8722 76.855C14.3865 75.3406 15.1437 73.4476 15.0175 71.4284C15.0175 67.6425 16.4057 63.9828 19.0559 61.3326L29.2779 51.1106C31.9281 48.4604 35.5878 47.0722 39.3738 47.0722H39.5C43.2859 47.0722 46.9456 48.4604 49.5958 51.1106L59.944 61.4588C62.5942 64.109 63.9824 67.7687 63.9824 71.5546C63.9824 73.5738 64.7396 75.4668 66.2539 76.9812C69.0303 79.6313 73.5734 79.7575 76.476 77.1074C79.6309 74.2048 79.7571 69.2831 76.7284 66.2543C75.214 64.7399 73.321 63.9828 71.3019 64.109C67.6421 63.9828 63.9824 62.7208 61.3322 59.9444Z" fill="black"/>
</g>
<defs>
<clipPath id="clip0_151_238">
<rect width="79" height="79" fill="white"/>
</clipPath>
</defs>
</svg>
